<mxfile host="app.diagrams.net" agent="Mozilla/5.0 (X11; Linux x86_64) AppleWebKit/537.36 (KHTML, like Gecko) Chrome/135.0.0.0 Safari/537.36" version="26.2.9">
  <diagram name="Page-1" id="6WaNfKOyfQCuohWohq6m">
    <mxGraphModel dx="1428" dy="791" grid="1" gridSize="10" guides="1" tooltips="1" connect="1" arrows="1" fold="1" page="1" pageScale="1" pageWidth="827" pageHeight="1169" math="0" shadow="0">
      <root>
        <mxCell id="0" />
        <mxCell id="1" parent="0" />
        <mxCell id="dLNTeZqgSa7C2rFLYYrD-2" value="model_run_n.sh.j2" style="shape=note;whiteSpace=wrap;html=1;backgroundOutline=1;darkOpacity=0.05;" vertex="1" parent="1">
          <mxGeometry x="87" y="360" width="106" height="120" as="geometry" />
        </mxCell>
        <mxCell id="dLNTeZqgSa7C2rFLYYrD-8" value="preprocess.sh.j2" style="shape=note;whiteSpace=wrap;html=1;backgroundOutline=1;darkOpacity=0.05;" vertex="1" parent="1">
          <mxGeometry x="87" y="200" width="106" height="120" as="geometry" />
        </mxCell>
        <mxCell id="dLNTeZqgSa7C2rFLYYrD-18" value="postprocess.sh.j2" style="shape=note;whiteSpace=wrap;html=1;backgroundOutline=1;darkOpacity=0.05;" vertex="1" parent="1">
          <mxGeometry x="87" y="520" width="106" height="120" as="geometry" />
        </mxCell>
        <mxCell id="dLNTeZqgSa7C2rFLYYrD-19" value="preprocess.sh" style="rounded=0;whiteSpace=wrap;html=1;" vertex="1" parent="1">
          <mxGeometry x="354.04" y="240" width="120" height="60" as="geometry" />
        </mxCell>
        <mxCell id="dLNTeZqgSa7C2rFLYYrD-20" value="postprocess.sh" style="rounded=0;whiteSpace=wrap;html=1;" vertex="1" parent="1">
          <mxGeometry x="354" y="560" width="120" height="60" as="geometry" />
        </mxCell>
        <mxCell id="dLNTeZqgSa7C2rFLYYrD-21" value="config.yaml" style="rounded=1;whiteSpace=wrap;html=1;" vertex="1" parent="1">
          <mxGeometry x="80" y="60" width="120" height="100" as="geometry" />
        </mxCell>
        <mxCell id="dLNTeZqgSa7C2rFLYYrD-28" value="... a &lt;b&gt;list&lt;/b&gt;&amp;nbsp;of&amp;nbsp;&lt;i&gt;batches, &lt;/i&gt;containing&amp;nbsp;model runs from a single template" style="text;html=1;align=center;verticalAlign=middle;whiteSpace=wrap;rounded=0;" vertex="1" parent="1">
          <mxGeometry x="600" y="375" width="200" height="90" as="geometry" />
        </mxCell>
        <mxCell id="dLNTeZqgSa7C2rFLYYrD-29" value="... a common pre-processing script from a template" style="text;html=1;align=center;verticalAlign=middle;whiteSpace=wrap;rounded=0;" vertex="1" parent="1">
          <mxGeometry x="600" y="225" width="200" height="90" as="geometry" />
        </mxCell>
        <mxCell id="dLNTeZqgSa7C2rFLYYrD-30" value="... a common postprocessing script from a template." style="text;html=1;align=center;verticalAlign=middle;whiteSpace=wrap;rounded=0;" vertex="1" parent="1">
          <mxGeometry x="600" y="545" width="200" height="90" as="geometry" />
        </mxCell>
        <mxCell id="dLNTeZqgSa7C2rFLYYrD-31" value="" style="endArrow=classic;html=1;rounded=0;exitX=1;exitY=0.5;exitDx=0;exitDy=0;entryX=0.5;entryY=0;entryDx=0;entryDy=0;" edge="1" parent="1" source="dLNTeZqgSa7C2rFLYYrD-21" target="dLNTeZqgSa7C2rFLYYrD-19">
          <mxGeometry width="50" height="50" relative="1" as="geometry">
            <mxPoint x="230" y="120" as="sourcePoint" />
            <mxPoint x="280" y="70" as="targetPoint" />
            <Array as="points">
              <mxPoint x="414" y="110" />
            </Array>
          </mxGeometry>
        </mxCell>
        <mxCell id="dLNTeZqgSa7C2rFLYYrD-32" value="A config.yml is used to dynamically generate and execute..." style="text;html=1;align=center;verticalAlign=middle;whiteSpace=wrap;rounded=0;" vertex="1" parent="1">
          <mxGeometry x="600" y="60" width="200" height="90" as="geometry" />
        </mxCell>
        <mxCell id="dLNTeZqgSa7C2rFLYYrD-33" value="" style="endArrow=none;html=1;rounded=0;entryX=0;entryY=0.5;entryDx=0;entryDy=0;" edge="1" parent="1" target="dLNTeZqgSa7C2rFLYYrD-21">
          <mxGeometry width="50" height="50" relative="1" as="geometry">
            <mxPoint x="40" y="580" as="sourcePoint" />
            <mxPoint x="80" y="110" as="targetPoint" />
            <Array as="points">
              <mxPoint x="40" y="110" />
            </Array>
          </mxGeometry>
        </mxCell>
        <mxCell id="dLNTeZqgSa7C2rFLYYrD-34" value="" style="endArrow=none;html=1;rounded=0;entryX=0;entryY=0.5;entryDx=0;entryDy=0;entryPerimeter=0;" edge="1" parent="1" target="dLNTeZqgSa7C2rFLYYrD-8">
          <mxGeometry width="50" height="50" relative="1" as="geometry">
            <mxPoint x="40" y="260" as="sourcePoint" />
            <mxPoint x="440" y="350" as="targetPoint" />
          </mxGeometry>
        </mxCell>
        <mxCell id="dLNTeZqgSa7C2rFLYYrD-35" value="" style="endArrow=none;html=1;rounded=0;entryX=0;entryY=0.5;entryDx=0;entryDy=0;entryPerimeter=0;" edge="1" parent="1" target="dLNTeZqgSa7C2rFLYYrD-2">
          <mxGeometry width="50" height="50" relative="1" as="geometry">
            <mxPoint x="40" y="420" as="sourcePoint" />
            <mxPoint x="97" y="270" as="targetPoint" />
          </mxGeometry>
        </mxCell>
        <mxCell id="dLNTeZqgSa7C2rFLYYrD-36" value="" style="endArrow=none;html=1;rounded=0;entryX=0;entryY=0.5;entryDx=0;entryDy=0;entryPerimeter=0;" edge="1" parent="1" target="dLNTeZqgSa7C2rFLYYrD-18">
          <mxGeometry width="50" height="50" relative="1" as="geometry">
            <mxPoint x="40" y="580" as="sourcePoint" />
            <mxPoint x="87" y="570" as="targetPoint" />
          </mxGeometry>
        </mxCell>
        <mxCell id="dLNTeZqgSa7C2rFLYYrD-43" value="" style="endArrow=none;dashed=1;html=1;rounded=0;exitX=0;exitY=0;exitDx=106;exitDy=75;exitPerimeter=0;" edge="1" parent="1" source="dLNTeZqgSa7C2rFLYYrD-8">
          <mxGeometry width="50" height="50" relative="1" as="geometry">
            <mxPoint x="390" y="400" as="sourcePoint" />
            <mxPoint x="350" y="275" as="targetPoint" />
          </mxGeometry>
        </mxCell>
        <mxCell id="dLNTeZqgSa7C2rFLYYrD-44" value="" style="endArrow=none;dashed=1;html=1;rounded=0;exitX=0;exitY=0;exitDx=106;exitDy=75;exitPerimeter=0;" edge="1" parent="1">
          <mxGeometry width="50" height="50" relative="1" as="geometry">
            <mxPoint x="193" y="589.5" as="sourcePoint" />
            <mxPoint x="350" y="589.5" as="targetPoint" />
          </mxGeometry>
        </mxCell>
        <mxCell id="dLNTeZqgSa7C2rFLYYrD-50" value="" style="group" vertex="1" connectable="0" parent="1">
          <mxGeometry x="254" y="320" width="320" height="70" as="geometry" />
        </mxCell>
        <mxCell id="dLNTeZqgSa7C2rFLYYrD-16" value="" style="whiteSpace=wrap;html=1;" vertex="1" parent="dLNTeZqgSa7C2rFLYYrD-50">
          <mxGeometry width="320" height="70" as="geometry" />
        </mxCell>
        <mxCell id="95APK0kmfAXDBwjT5X0d-6" value="" style="swimlane;html=1;startSize=20;fontStyle=0;collapsible=0;horizontal=0;swimlaneLine=0;fillColor=none;whiteSpace=wrap;" parent="dLNTeZqgSa7C2rFLYYrD-50" vertex="1">
          <mxGeometry x="60.766153846153856" y="26.842105263157904" width="101.53846153846153" height="12.631578947368421" as="geometry" />
        </mxCell>
        <mxCell id="95APK0kmfAXDBwjT5X0d-21" value="model_run_2&lt;span style=&quot;background-color: transparent; color: light-dark(rgb(0, 0, 0), rgb(255, 255, 255));&quot;&gt;.sh&lt;/span&gt;" style="text;html=1;align=center;verticalAlign=middle;whiteSpace=wrap;rounded=0;" parent="95APK0kmfAXDBwjT5X0d-6" vertex="1">
          <mxGeometry x="22.21153846153846" y="1.5789473684210527" width="57.11538461538461" height="9.473684210526315" as="geometry" />
        </mxCell>
        <mxCell id="95APK0kmfAXDBwjT5X0d-7" value="" style="swimlane;html=1;startSize=20;fontStyle=0;collapsible=0;horizontal=0;swimlaneLine=0;fillColor=none;whiteSpace=wrap;" parent="dLNTeZqgSa7C2rFLYYrD-50" vertex="1">
          <mxGeometry x="60.766153846153856" y="42.631578947368446" width="101.53846153846153" height="12.631578947368421" as="geometry" />
        </mxCell>
        <mxCell id="95APK0kmfAXDBwjT5X0d-22" value=". . ." style="text;html=1;align=center;verticalAlign=middle;whiteSpace=wrap;rounded=0;" parent="95APK0kmfAXDBwjT5X0d-7" vertex="1">
          <mxGeometry x="22.21153846153846" y="1.5789473684210527" width="57.11538461538461" height="9.473684210526315" as="geometry" />
        </mxCell>
        <mxCell id="95APK0kmfAXDBwjT5X0d-8" value="" style="swimlane;html=1;startSize=20;fontStyle=0;collapsible=0;horizontal=0;swimlaneLine=0;fillColor=none;whiteSpace=wrap;" parent="dLNTeZqgSa7C2rFLYYrD-50" vertex="1">
          <mxGeometry x="60.766153846153856" y="11.052631578947368" width="101.53846153846153" height="12.631578947368421" as="geometry" />
        </mxCell>
        <mxCell id="95APK0kmfAXDBwjT5X0d-20" value="model_run_1.sh" style="text;html=1;align=center;verticalAlign=middle;whiteSpace=wrap;rounded=0;" parent="95APK0kmfAXDBwjT5X0d-8" vertex="1">
          <mxGeometry x="22.21153846153846" y="1.5789473684210527" width="57.11538461538461" height="9.473684210526315" as="geometry" />
        </mxCell>
        <mxCell id="95APK0kmfAXDBwjT5X0d-11" value="" style="triangle;whiteSpace=wrap;html=1;" parent="dLNTeZqgSa7C2rFLYYrD-50" vertex="1">
          <mxGeometry x="257.49692307692305" y="11.052631578947368" width="44.42307692307692" height="44.21052631578947" as="geometry" />
        </mxCell>
        <mxCell id="95APK0kmfAXDBwjT5X0d-12" value="" style="ellipse;whiteSpace=wrap;html=1;aspect=fixed;" parent="dLNTeZqgSa7C2rFLYYrD-50" vertex="1">
          <mxGeometry x="194.03538461538463" y="11.052631578947368" width="9.924812030075188" height="9.924812030075188" as="geometry" />
        </mxCell>
        <mxCell id="95APK0kmfAXDBwjT5X0d-13" value="" style="ellipse;whiteSpace=wrap;html=1;aspect=fixed;" parent="dLNTeZqgSa7C2rFLYYrD-50" vertex="1">
          <mxGeometry x="194.03538461538463" y="26.842105263157904" width="9.924812030075188" height="9.924812030075188" as="geometry" />
        </mxCell>
        <mxCell id="95APK0kmfAXDBwjT5X0d-14" value="" style="ellipse;whiteSpace=wrap;html=1;aspect=fixed;" parent="dLNTeZqgSa7C2rFLYYrD-50" vertex="1">
          <mxGeometry x="194.03538461538463" y="42.631578947368446" width="9.924812030075188" height="9.924812030075188" as="geometry" />
        </mxCell>
        <mxCell id="95APK0kmfAXDBwjT5X0d-26" value="" style="endArrow=none;html=1;rounded=0;entryX=0;entryY=0.5;entryDx=0;entryDy=0;exitX=1;exitY=0.5;exitDx=0;exitDy=0;" parent="dLNTeZqgSa7C2rFLYYrD-50" source="95APK0kmfAXDBwjT5X0d-8" target="95APK0kmfAXDBwjT5X0d-12" edge="1">
          <mxGeometry width="50" height="50" relative="1" as="geometry">
            <mxPoint x="16.34307692307695" y="36.315789473684205" as="sourcePoint" />
            <mxPoint x="67.11230769230772" y="20.52631578947371" as="targetPoint" />
          </mxGeometry>
        </mxCell>
        <mxCell id="95APK0kmfAXDBwjT5X0d-27" value="" style="endArrow=none;html=1;rounded=0;entryX=0;entryY=0.5;entryDx=0;entryDy=0;exitX=1;exitY=0.5;exitDx=0;exitDy=0;" parent="dLNTeZqgSa7C2rFLYYrD-50" edge="1">
          <mxGeometry width="50" height="50" relative="1" as="geometry">
            <mxPoint x="162.3046153846154" y="33.05052631578947" as="sourcePoint" />
            <mxPoint x="194.03538461538463" y="33.05052631578947" as="targetPoint" />
          </mxGeometry>
        </mxCell>
        <mxCell id="95APK0kmfAXDBwjT5X0d-28" value="" style="endArrow=none;html=1;rounded=0;entryX=0;entryY=0.5;entryDx=0;entryDy=0;exitX=1;exitY=0.5;exitDx=0;exitDy=0;" parent="dLNTeZqgSa7C2rFLYYrD-50" edge="1">
          <mxGeometry width="50" height="50" relative="1" as="geometry">
            <mxPoint x="162.3046153846154" y="48.83999999999997" as="sourcePoint" />
            <mxPoint x="194.03538461538463" y="48.83999999999997" as="targetPoint" />
          </mxGeometry>
        </mxCell>
        <mxCell id="95APK0kmfAXDBwjT5X0d-29" value="" style="endArrow=none;html=1;rounded=0;entryX=0.004;entryY=0.853;entryDx=0;entryDy=0;exitX=1;exitY=0.5;exitDx=0;exitDy=0;entryPerimeter=0;" parent="dLNTeZqgSa7C2rFLYYrD-50" target="95APK0kmfAXDBwjT5X0d-11" edge="1" source="95APK0kmfAXDBwjT5X0d-14">
          <mxGeometry width="50" height="50" relative="1" as="geometry">
            <mxPoint x="219.42000000000004" y="48.83999999999997" as="sourcePoint" />
            <mxPoint x="251.15076923076927" y="48.83999999999997" as="targetPoint" />
          </mxGeometry>
        </mxCell>
        <mxCell id="95APK0kmfAXDBwjT5X0d-30" value="" style="endArrow=none;html=1;rounded=0;entryX=0;entryY=0.5;entryDx=0;entryDy=0;exitX=1;exitY=0.5;exitDx=0;exitDy=0;" parent="dLNTeZqgSa7C2rFLYYrD-50" source="95APK0kmfAXDBwjT5X0d-13" target="95APK0kmfAXDBwjT5X0d-11" edge="1">
          <mxGeometry width="50" height="50" relative="1" as="geometry">
            <mxPoint x="225.76615384615386" y="51.997894736842106" as="sourcePoint" />
            <mxPoint x="263.843076923077" y="36.315789473684205" as="targetPoint" />
          </mxGeometry>
        </mxCell>
        <mxCell id="95APK0kmfAXDBwjT5X0d-31" value="" style="endArrow=none;html=1;rounded=0;entryX=-0.005;entryY=0.143;entryDx=0;entryDy=0;exitX=1;exitY=0.5;exitDx=0;exitDy=0;entryPerimeter=0;" parent="dLNTeZqgSa7C2rFLYYrD-50" source="95APK0kmfAXDBwjT5X0d-12" target="95APK0kmfAXDBwjT5X0d-11" edge="1">
          <mxGeometry width="50" height="50" relative="1" as="geometry">
            <mxPoint x="225.76615384615386" y="36.315789473684205" as="sourcePoint" />
            <mxPoint x="263.843076923077" y="36.315789473684205" as="targetPoint" />
          </mxGeometry>
        </mxCell>
        <mxCell id="dLNTeZqgSa7C2rFLYYrD-51" value="" style="group" vertex="1" connectable="0" parent="1">
          <mxGeometry x="254.04" y="400" width="320" height="70" as="geometry" />
        </mxCell>
        <mxCell id="dLNTeZqgSa7C2rFLYYrD-52" value="" style="whiteSpace=wrap;html=1;" vertex="1" parent="dLNTeZqgSa7C2rFLYYrD-51">
          <mxGeometry width="320" height="70" as="geometry" />
        </mxCell>
        <mxCell id="dLNTeZqgSa7C2rFLYYrD-53" value="" style="swimlane;html=1;startSize=20;fontStyle=0;collapsible=0;horizontal=0;swimlaneLine=0;fillColor=none;whiteSpace=wrap;" vertex="1" parent="dLNTeZqgSa7C2rFLYYrD-51">
          <mxGeometry x="60.766153846153856" y="26.842105263157904" width="101.53846153846153" height="12.631578947368421" as="geometry" />
        </mxCell>
        <mxCell id="dLNTeZqgSa7C2rFLYYrD-54" value="model_run_2&lt;span style=&quot;background-color: transparent; color: light-dark(rgb(0, 0, 0), rgb(255, 255, 255));&quot;&gt;.sh&lt;/span&gt;" style="text;html=1;align=center;verticalAlign=middle;whiteSpace=wrap;rounded=0;" vertex="1" parent="dLNTeZqgSa7C2rFLYYrD-53">
          <mxGeometry x="22.21153846153846" y="1.5789473684210527" width="57.11538461538461" height="9.473684210526315" as="geometry" />
        </mxCell>
        <mxCell id="dLNTeZqgSa7C2rFLYYrD-55" value="" style="swimlane;html=1;startSize=20;fontStyle=0;collapsible=0;horizontal=0;swimlaneLine=0;fillColor=none;whiteSpace=wrap;" vertex="1" parent="dLNTeZqgSa7C2rFLYYrD-51">
          <mxGeometry x="60.766153846153856" y="42.631578947368446" width="101.53846153846153" height="12.631578947368421" as="geometry" />
        </mxCell>
        <mxCell id="dLNTeZqgSa7C2rFLYYrD-56" value=". . ." style="text;html=1;align=center;verticalAlign=middle;whiteSpace=wrap;rounded=0;" vertex="1" parent="dLNTeZqgSa7C2rFLYYrD-55">
          <mxGeometry x="22.21153846153846" y="1.5789473684210527" width="57.11538461538461" height="9.473684210526315" as="geometry" />
        </mxCell>
        <mxCell id="dLNTeZqgSa7C2rFLYYrD-57" value="" style="swimlane;html=1;startSize=20;fontStyle=0;collapsible=0;horizontal=0;swimlaneLine=0;fillColor=none;whiteSpace=wrap;" vertex="1" parent="dLNTeZqgSa7C2rFLYYrD-51">
          <mxGeometry x="60.766153846153856" y="11.052631578947368" width="101.53846153846153" height="12.631578947368421" as="geometry" />
        </mxCell>
        <mxCell id="dLNTeZqgSa7C2rFLYYrD-58" value="model_run_1.sh" style="text;html=1;align=center;verticalAlign=middle;whiteSpace=wrap;rounded=0;" vertex="1" parent="dLNTeZqgSa7C2rFLYYrD-57">
          <mxGeometry x="22.21153846153846" y="1.5789473684210527" width="57.11538461538461" height="9.473684210526315" as="geometry" />
        </mxCell>
        <mxCell id="dLNTeZqgSa7C2rFLYYrD-59" value="" style="triangle;whiteSpace=wrap;html=1;" vertex="1" parent="dLNTeZqgSa7C2rFLYYrD-51">
          <mxGeometry x="257.49692307692305" y="11.052631578947368" width="44.42307692307692" height="44.21052631578947" as="geometry" />
        </mxCell>
        <mxCell id="dLNTeZqgSa7C2rFLYYrD-60" value="" style="ellipse;whiteSpace=wrap;html=1;aspect=fixed;" vertex="1" parent="dLNTeZqgSa7C2rFLYYrD-51">
          <mxGeometry x="194.03538461538463" y="11.052631578947368" width="9.924812030075188" height="9.924812030075188" as="geometry" />
        </mxCell>
        <mxCell id="dLNTeZqgSa7C2rFLYYrD-61" value="" style="ellipse;whiteSpace=wrap;html=1;aspect=fixed;" vertex="1" parent="dLNTeZqgSa7C2rFLYYrD-51">
          <mxGeometry x="194.03538461538463" y="26.842105263157904" width="9.924812030075188" height="9.924812030075188" as="geometry" />
        </mxCell>
        <mxCell id="dLNTeZqgSa7C2rFLYYrD-62" value="" style="ellipse;whiteSpace=wrap;html=1;aspect=fixed;" vertex="1" parent="dLNTeZqgSa7C2rFLYYrD-51">
          <mxGeometry x="194.03538461538463" y="42.631578947368446" width="9.924812030075188" height="9.924812030075188" as="geometry" />
        </mxCell>
        <mxCell id="dLNTeZqgSa7C2rFLYYrD-63" value="" style="endArrow=none;html=1;rounded=0;entryX=0;entryY=0.5;entryDx=0;entryDy=0;exitX=1;exitY=0.5;exitDx=0;exitDy=0;" edge="1" parent="dLNTeZqgSa7C2rFLYYrD-51" source="dLNTeZqgSa7C2rFLYYrD-57" target="dLNTeZqgSa7C2rFLYYrD-60">
          <mxGeometry width="50" height="50" relative="1" as="geometry">
            <mxPoint x="16.34307692307695" y="36.315789473684205" as="sourcePoint" />
            <mxPoint x="67.11230769230772" y="20.52631578947371" as="targetPoint" />
          </mxGeometry>
        </mxCell>
        <mxCell id="dLNTeZqgSa7C2rFLYYrD-64" value="" style="endArrow=none;html=1;rounded=0;entryX=0;entryY=0.5;entryDx=0;entryDy=0;exitX=1;exitY=0.5;exitDx=0;exitDy=0;" edge="1" parent="dLNTeZqgSa7C2rFLYYrD-51">
          <mxGeometry width="50" height="50" relative="1" as="geometry">
            <mxPoint x="162.3046153846154" y="33.05052631578947" as="sourcePoint" />
            <mxPoint x="194.03538461538463" y="33.05052631578947" as="targetPoint" />
          </mxGeometry>
        </mxCell>
        <mxCell id="dLNTeZqgSa7C2rFLYYrD-65" value="" style="endArrow=none;html=1;rounded=0;entryX=0;entryY=0.5;entryDx=0;entryDy=0;exitX=1;exitY=0.5;exitDx=0;exitDy=0;" edge="1" parent="dLNTeZqgSa7C2rFLYYrD-51">
          <mxGeometry width="50" height="50" relative="1" as="geometry">
            <mxPoint x="162.3046153846154" y="48.83999999999997" as="sourcePoint" />
            <mxPoint x="194.03538461538463" y="48.83999999999997" as="targetPoint" />
          </mxGeometry>
        </mxCell>
        <mxCell id="dLNTeZqgSa7C2rFLYYrD-66" value="" style="endArrow=none;html=1;rounded=0;entryX=0.004;entryY=0.853;entryDx=0;entryDy=0;exitX=1;exitY=0.5;exitDx=0;exitDy=0;entryPerimeter=0;" edge="1" parent="dLNTeZqgSa7C2rFLYYrD-51" source="dLNTeZqgSa7C2rFLYYrD-62" target="dLNTeZqgSa7C2rFLYYrD-59">
          <mxGeometry width="50" height="50" relative="1" as="geometry">
            <mxPoint x="219.42000000000004" y="48.83999999999997" as="sourcePoint" />
            <mxPoint x="251.15076923076927" y="48.83999999999997" as="targetPoint" />
          </mxGeometry>
        </mxCell>
        <mxCell id="dLNTeZqgSa7C2rFLYYrD-67" value="" style="endArrow=none;html=1;rounded=0;entryX=0;entryY=0.5;entryDx=0;entryDy=0;exitX=1;exitY=0.5;exitDx=0;exitDy=0;" edge="1" parent="dLNTeZqgSa7C2rFLYYrD-51" source="dLNTeZqgSa7C2rFLYYrD-61" target="dLNTeZqgSa7C2rFLYYrD-59">
          <mxGeometry width="50" height="50" relative="1" as="geometry">
            <mxPoint x="225.76615384615386" y="51.997894736842106" as="sourcePoint" />
            <mxPoint x="263.843076923077" y="36.315789473684205" as="targetPoint" />
          </mxGeometry>
        </mxCell>
        <mxCell id="dLNTeZqgSa7C2rFLYYrD-68" value="" style="endArrow=none;html=1;rounded=0;entryX=-0.005;entryY=0.143;entryDx=0;entryDy=0;exitX=1;exitY=0.5;exitDx=0;exitDy=0;entryPerimeter=0;" edge="1" parent="dLNTeZqgSa7C2rFLYYrD-51" source="dLNTeZqgSa7C2rFLYYrD-60" target="dLNTeZqgSa7C2rFLYYrD-59">
          <mxGeometry width="50" height="50" relative="1" as="geometry">
            <mxPoint x="225.76615384615386" y="36.315789473684205" as="sourcePoint" />
            <mxPoint x="263.843076923077" y="36.315789473684205" as="targetPoint" />
          </mxGeometry>
        </mxCell>
        <mxCell id="dLNTeZqgSa7C2rFLYYrD-69" value="" style="group" vertex="1" connectable="0" parent="1">
          <mxGeometry x="254" y="480" width="320" height="70" as="geometry" />
        </mxCell>
        <mxCell id="dLNTeZqgSa7C2rFLYYrD-70" value="" style="whiteSpace=wrap;html=1;" vertex="1" parent="dLNTeZqgSa7C2rFLYYrD-69">
          <mxGeometry width="320" height="70" as="geometry" />
        </mxCell>
        <mxCell id="dLNTeZqgSa7C2rFLYYrD-71" value="" style="swimlane;html=1;startSize=20;fontStyle=0;collapsible=0;horizontal=0;swimlaneLine=0;fillColor=none;whiteSpace=wrap;" vertex="1" parent="dLNTeZqgSa7C2rFLYYrD-69">
          <mxGeometry x="60.766153846153856" y="26.842105263157904" width="101.53846153846153" height="12.631578947368421" as="geometry" />
        </mxCell>
        <mxCell id="dLNTeZqgSa7C2rFLYYrD-72" value="model_run_2&lt;span style=&quot;background-color: transparent; color: light-dark(rgb(0, 0, 0), rgb(255, 255, 255));&quot;&gt;.sh&lt;/span&gt;" style="text;html=1;align=center;verticalAlign=middle;whiteSpace=wrap;rounded=0;" vertex="1" parent="dLNTeZqgSa7C2rFLYYrD-71">
          <mxGeometry x="22.21153846153846" y="1.5789473684210527" width="57.11538461538461" height="9.473684210526315" as="geometry" />
        </mxCell>
        <mxCell id="dLNTeZqgSa7C2rFLYYrD-73" value="" style="swimlane;html=1;startSize=20;fontStyle=0;collapsible=0;horizontal=0;swimlaneLine=0;fillColor=none;whiteSpace=wrap;" vertex="1" parent="dLNTeZqgSa7C2rFLYYrD-69">
          <mxGeometry x="60.766153846153856" y="42.631578947368446" width="101.53846153846153" height="12.631578947368421" as="geometry" />
        </mxCell>
        <mxCell id="dLNTeZqgSa7C2rFLYYrD-74" value=". . ." style="text;html=1;align=center;verticalAlign=middle;whiteSpace=wrap;rounded=0;" vertex="1" parent="dLNTeZqgSa7C2rFLYYrD-73">
          <mxGeometry x="22.21153846153846" y="1.5789473684210527" width="57.11538461538461" height="9.473684210526315" as="geometry" />
        </mxCell>
        <mxCell id="dLNTeZqgSa7C2rFLYYrD-75" value="" style="swimlane;html=1;startSize=20;fontStyle=0;collapsible=0;horizontal=0;swimlaneLine=0;fillColor=none;whiteSpace=wrap;" vertex="1" parent="dLNTeZqgSa7C2rFLYYrD-69">
          <mxGeometry x="60.766153846153856" y="11.052631578947368" width="101.53846153846153" height="12.631578947368421" as="geometry" />
        </mxCell>
        <mxCell id="dLNTeZqgSa7C2rFLYYrD-76" value="model_run_1.sh" style="text;html=1;align=center;verticalAlign=middle;whiteSpace=wrap;rounded=0;" vertex="1" parent="dLNTeZqgSa7C2rFLYYrD-75">
          <mxGeometry x="22.21153846153846" y="1.5789473684210527" width="57.11538461538461" height="9.473684210526315" as="geometry" />
        </mxCell>
        <mxCell id="dLNTeZqgSa7C2rFLYYrD-77" value="" style="triangle;whiteSpace=wrap;html=1;" vertex="1" parent="dLNTeZqgSa7C2rFLYYrD-69">
          <mxGeometry x="257.49692307692305" y="11.052631578947368" width="44.42307692307692" height="44.21052631578947" as="geometry" />
        </mxCell>
        <mxCell id="dLNTeZqgSa7C2rFLYYrD-78" value="" style="ellipse;whiteSpace=wrap;html=1;aspect=fixed;" vertex="1" parent="dLNTeZqgSa7C2rFLYYrD-69">
          <mxGeometry x="194.03538461538463" y="11.052631578947368" width="9.924812030075188" height="9.924812030075188" as="geometry" />
        </mxCell>
        <mxCell id="dLNTeZqgSa7C2rFLYYrD-79" value="" style="ellipse;whiteSpace=wrap;html=1;aspect=fixed;" vertex="1" parent="dLNTeZqgSa7C2rFLYYrD-69">
          <mxGeometry x="194.03538461538463" y="26.842105263157904" width="9.924812030075188" height="9.924812030075188" as="geometry" />
        </mxCell>
        <mxCell id="dLNTeZqgSa7C2rFLYYrD-80" value="" style="ellipse;whiteSpace=wrap;html=1;aspect=fixed;" vertex="1" parent="dLNTeZqgSa7C2rFLYYrD-69">
          <mxGeometry x="194.03538461538463" y="42.631578947368446" width="9.924812030075188" height="9.924812030075188" as="geometry" />
        </mxCell>
        <mxCell id="dLNTeZqgSa7C2rFLYYrD-81" value="" style="endArrow=none;html=1;rounded=0;entryX=0;entryY=0.5;entryDx=0;entryDy=0;exitX=1;exitY=0.5;exitDx=0;exitDy=0;" edge="1" parent="dLNTeZqgSa7C2rFLYYrD-69" source="dLNTeZqgSa7C2rFLYYrD-75" target="dLNTeZqgSa7C2rFLYYrD-78">
          <mxGeometry width="50" height="50" relative="1" as="geometry">
            <mxPoint x="16.34307692307695" y="36.315789473684205" as="sourcePoint" />
            <mxPoint x="67.11230769230772" y="20.52631578947371" as="targetPoint" />
          </mxGeometry>
        </mxCell>
        <mxCell id="dLNTeZqgSa7C2rFLYYrD-82" value="" style="endArrow=none;html=1;rounded=0;entryX=0;entryY=0.5;entryDx=0;entryDy=0;exitX=1;exitY=0.5;exitDx=0;exitDy=0;" edge="1" parent="dLNTeZqgSa7C2rFLYYrD-69">
          <mxGeometry width="50" height="50" relative="1" as="geometry">
            <mxPoint x="162.3046153846154" y="33.05052631578947" as="sourcePoint" />
            <mxPoint x="194.03538461538463" y="33.05052631578947" as="targetPoint" />
          </mxGeometry>
        </mxCell>
        <mxCell id="dLNTeZqgSa7C2rFLYYrD-83" value="" style="endArrow=none;html=1;rounded=0;entryX=0;entryY=0.5;entryDx=0;entryDy=0;exitX=1;exitY=0.5;exitDx=0;exitDy=0;" edge="1" parent="dLNTeZqgSa7C2rFLYYrD-69">
          <mxGeometry width="50" height="50" relative="1" as="geometry">
            <mxPoint x="162.3046153846154" y="48.83999999999997" as="sourcePoint" />
            <mxPoint x="194.03538461538463" y="48.83999999999997" as="targetPoint" />
          </mxGeometry>
        </mxCell>
        <mxCell id="dLNTeZqgSa7C2rFLYYrD-84" value="" style="endArrow=none;html=1;rounded=0;entryX=0.004;entryY=0.853;entryDx=0;entryDy=0;exitX=1;exitY=0.5;exitDx=0;exitDy=0;entryPerimeter=0;" edge="1" parent="dLNTeZqgSa7C2rFLYYrD-69" source="dLNTeZqgSa7C2rFLYYrD-80" target="dLNTeZqgSa7C2rFLYYrD-77">
          <mxGeometry width="50" height="50" relative="1" as="geometry">
            <mxPoint x="219.42000000000004" y="48.83999999999997" as="sourcePoint" />
            <mxPoint x="251.15076923076927" y="48.83999999999997" as="targetPoint" />
          </mxGeometry>
        </mxCell>
        <mxCell id="dLNTeZqgSa7C2rFLYYrD-85" value="" style="endArrow=none;html=1;rounded=0;entryX=0;entryY=0.5;entryDx=0;entryDy=0;exitX=1;exitY=0.5;exitDx=0;exitDy=0;" edge="1" parent="dLNTeZqgSa7C2rFLYYrD-69" source="dLNTeZqgSa7C2rFLYYrD-79" target="dLNTeZqgSa7C2rFLYYrD-77">
          <mxGeometry width="50" height="50" relative="1" as="geometry">
            <mxPoint x="225.76615384615386" y="51.997894736842106" as="sourcePoint" />
            <mxPoint x="263.843076923077" y="36.315789473684205" as="targetPoint" />
          </mxGeometry>
        </mxCell>
        <mxCell id="dLNTeZqgSa7C2rFLYYrD-86" value="" style="endArrow=none;html=1;rounded=0;entryX=-0.005;entryY=0.143;entryDx=0;entryDy=0;exitX=1;exitY=0.5;exitDx=0;exitDy=0;entryPerimeter=0;" edge="1" parent="dLNTeZqgSa7C2rFLYYrD-69" source="dLNTeZqgSa7C2rFLYYrD-78" target="dLNTeZqgSa7C2rFLYYrD-77">
          <mxGeometry width="50" height="50" relative="1" as="geometry">
            <mxPoint x="225.76615384615386" y="36.315789473684205" as="sourcePoint" />
            <mxPoint x="263.843076923077" y="36.315789473684205" as="targetPoint" />
          </mxGeometry>
        </mxCell>
        <mxCell id="dLNTeZqgSa7C2rFLYYrD-87" value="" style="endArrow=none;dashed=1;html=1;rounded=0;exitX=0;exitY=0;exitDx=106;exitDy=75;exitPerimeter=0;entryX=0;entryY=0.5;entryDx=0;entryDy=0;" edge="1" parent="1" source="dLNTeZqgSa7C2rFLYYrD-2" target="95APK0kmfAXDBwjT5X0d-8">
          <mxGeometry width="50" height="50" relative="1" as="geometry">
            <mxPoint x="390" y="400" as="sourcePoint" />
            <mxPoint x="440" y="350" as="targetPoint" />
          </mxGeometry>
        </mxCell>
        <mxCell id="dLNTeZqgSa7C2rFLYYrD-88" value="" style="endArrow=none;dashed=1;html=1;rounded=0;entryX=0;entryY=0.25;entryDx=0;entryDy=0;" edge="1" parent="1" target="95APK0kmfAXDBwjT5X0d-6">
          <mxGeometry width="50" height="50" relative="1" as="geometry">
            <mxPoint x="200" y="430" as="sourcePoint" />
            <mxPoint x="325" y="347" as="targetPoint" />
          </mxGeometry>
        </mxCell>
        <mxCell id="dLNTeZqgSa7C2rFLYYrD-90" value="" style="endArrow=none;dashed=1;html=1;rounded=0;entryX=0;entryY=0.5;entryDx=0;entryDy=0;exitX=0;exitY=0;exitDx=106;exitDy=75;exitPerimeter=0;" edge="1" parent="1" source="dLNTeZqgSa7C2rFLYYrD-2" target="95APK0kmfAXDBwjT5X0d-7">
          <mxGeometry width="50" height="50" relative="1" as="geometry">
            <mxPoint x="210" y="440" as="sourcePoint" />
            <mxPoint x="325" y="360" as="targetPoint" />
          </mxGeometry>
        </mxCell>
        <mxCell id="dLNTeZqgSa7C2rFLYYrD-91" value="" style="endArrow=none;dashed=1;html=1;rounded=0;entryX=0;entryY=0.5;entryDx=0;entryDy=0;exitX=0;exitY=0;exitDx=106;exitDy=75;exitPerimeter=0;" edge="1" parent="1" source="dLNTeZqgSa7C2rFLYYrD-2" target="dLNTeZqgSa7C2rFLYYrD-57">
          <mxGeometry width="50" height="50" relative="1" as="geometry">
            <mxPoint x="203" y="445" as="sourcePoint" />
            <mxPoint x="325" y="379" as="targetPoint" />
          </mxGeometry>
        </mxCell>
        <mxCell id="dLNTeZqgSa7C2rFLYYrD-92" value="" style="endArrow=none;dashed=1;html=1;rounded=0;entryX=0;entryY=0.5;entryDx=0;entryDy=0;exitX=0;exitY=0;exitDx=106;exitDy=75;exitPerimeter=0;" edge="1" parent="1" source="dLNTeZqgSa7C2rFLYYrD-2" target="dLNTeZqgSa7C2rFLYYrD-53">
          <mxGeometry width="50" height="50" relative="1" as="geometry">
            <mxPoint x="203" y="445" as="sourcePoint" />
            <mxPoint x="325" y="427" as="targetPoint" />
          </mxGeometry>
        </mxCell>
        <mxCell id="dLNTeZqgSa7C2rFLYYrD-93" value="" style="endArrow=none;dashed=1;html=1;rounded=0;entryX=0;entryY=0.5;entryDx=0;entryDy=0;exitX=0;exitY=0;exitDx=106;exitDy=75;exitPerimeter=0;" edge="1" parent="1" source="dLNTeZqgSa7C2rFLYYrD-2">
          <mxGeometry width="50" height="50" relative="1" as="geometry">
            <mxPoint x="203" y="445" as="sourcePoint" />
            <mxPoint x="325" y="443" as="targetPoint" />
          </mxGeometry>
        </mxCell>
        <mxCell id="dLNTeZqgSa7C2rFLYYrD-96" value="" style="endArrow=none;dashed=1;html=1;rounded=0;entryX=0;entryY=0.5;entryDx=0;entryDy=0;exitX=0;exitY=0;exitDx=106;exitDy=75;exitPerimeter=0;" edge="1" parent="1" source="dLNTeZqgSa7C2rFLYYrD-2" target="dLNTeZqgSa7C2rFLYYrD-75">
          <mxGeometry width="50" height="50" relative="1" as="geometry">
            <mxPoint x="203" y="445" as="sourcePoint" />
            <mxPoint x="335" y="453" as="targetPoint" />
          </mxGeometry>
        </mxCell>
        <mxCell id="dLNTeZqgSa7C2rFLYYrD-97" value="" style="endArrow=none;dashed=1;html=1;rounded=0;entryX=0;entryY=0.25;entryDx=0;entryDy=0;exitX=0;exitY=0;exitDx=106;exitDy=75;exitPerimeter=0;" edge="1" parent="1" source="dLNTeZqgSa7C2rFLYYrD-2" target="dLNTeZqgSa7C2rFLYYrD-71">
          <mxGeometry width="50" height="50" relative="1" as="geometry">
            <mxPoint x="203" y="445" as="sourcePoint" />
            <mxPoint x="325" y="507" as="targetPoint" />
          </mxGeometry>
        </mxCell>
        <mxCell id="dLNTeZqgSa7C2rFLYYrD-98" value="" style="endArrow=none;dashed=1;html=1;rounded=0;entryX=0;entryY=0.25;entryDx=0;entryDy=0;exitX=0;exitY=0;exitDx=106;exitDy=75;exitPerimeter=0;" edge="1" parent="1" source="dLNTeZqgSa7C2rFLYYrD-2" target="dLNTeZqgSa7C2rFLYYrD-73">
          <mxGeometry width="50" height="50" relative="1" as="geometry">
            <mxPoint x="203" y="445" as="sourcePoint" />
            <mxPoint x="325" y="520" as="targetPoint" />
          </mxGeometry>
        </mxCell>
        <mxCell id="dLNTeZqgSa7C2rFLYYrD-99" value="" style="endArrow=classic;html=1;rounded=0;exitX=1;exitY=0.5;exitDx=0;exitDy=0;entryX=0.75;entryY=0;entryDx=0;entryDy=0;" edge="1" parent="1" source="dLNTeZqgSa7C2rFLYYrD-19" target="dLNTeZqgSa7C2rFLYYrD-16">
          <mxGeometry width="50" height="50" relative="1" as="geometry">
            <mxPoint x="390" y="400" as="sourcePoint" />
            <mxPoint x="440" y="350" as="targetPoint" />
            <Array as="points">
              <mxPoint x="494" y="270" />
            </Array>
          </mxGeometry>
        </mxCell>
        <mxCell id="dLNTeZqgSa7C2rFLYYrD-100" value="" style="endArrow=classic;html=1;rounded=0;exitX=0.75;exitY=1;exitDx=0;exitDy=0;entryX=1;entryY=0.5;entryDx=0;entryDy=0;" edge="1" parent="1" source="dLNTeZqgSa7C2rFLYYrD-70" target="dLNTeZqgSa7C2rFLYYrD-20">
          <mxGeometry width="50" height="50" relative="1" as="geometry">
            <mxPoint x="500" y="565" as="sourcePoint" />
            <mxPoint x="520" y="615" as="targetPoint" />
            <Array as="points">
              <mxPoint x="494" y="590" />
            </Array>
          </mxGeometry>
        </mxCell>
      </root>
    </mxGraphModel>
  </diagram>
</mxfile>
